<?xml version="1.0" standalone="no"?>
<!DOCTYPE svg PUBLIC "-//W3C//DTD SVG 20010904//EN"
 "http://www.w3.org/TR/2001/REC-SVG-20010904/DTD/svg10.dtd">
<svg version="1.0" xmlns="http://www.w3.org/2000/svg"
 width="96.000000pt" height="96.000000pt" viewBox="0 0 96.000000 96.000000"
 preserveAspectRatio="xMidYMid meet">

<g transform="translate(0.000000,96.000000) scale(0.100000,-0.100000)"
fill="#000000" stroke="none">
<path d="M118 733 c-43 -43 -78 -85 -78 -93 0 -25 155 -173 176 -168 36 6 28
39 -22 89 l-48 49 384 2 385 3 0 25 0 25 -385 3 -384 2 48 49 c50 51 58 84 21
89 -14 2 -45 -22 -97 -75z"/>
<path d="M732 478 c-20 -20 -14 -31 33 -78 l46 -45 -383 -5 -383 -5 0 -25 0
-25 385 -3 384 -2 -48 -49 c-50 -50 -58 -83 -22 -89 22 -5 176 143 176 168 0
17 -149 170 -166 170 -5 0 -15 -5 -22 -12z"/>
</g>
</svg>
