<?xml version="1.0" standalone="no"?>
<!DOCTYPE svg PUBLIC "-//W3C//DTD SVG 20010904//EN"
 "http://www.w3.org/TR/2001/REC-SVG-20010904/DTD/svg10.dtd">
<svg version="1.0" xmlns="http://www.w3.org/2000/svg"
 width="96.000000pt" height="96.000000pt" viewBox="0 0 96.000000 96.000000"
 preserveAspectRatio="xMidYMid meet">

<g transform="translate(0.000000,96.000000) scale(0.100000,-0.100000)"
fill="#000000" stroke="none">
<path d="M152 748 c-9 -9 -12 -74 -12 -230 l0 -218 340 0 340 0 0 218 c0 156
-3 221 -12 230 -17 17 -639 17 -656 0z m608 -218 l0 -170 -280 0 -280 0 0 170
0 170 280 0 280 0 0 -170z"/>
<path d="M20 242 c0 -41 6 -42 460 -42 454 0 460 1 460 42 0 17 -14 18 -200
18 -127 0 -200 -4 -200 -10 0 -6 -27 -10 -60 -10 -33 0 -60 4 -60 10 0 6 -73
10 -200 10 -186 0 -200 -1 -200 -18z"/>
</g>
</svg>
